<?xml version="1.0" encoding="utf-8"?>
<!-- Generator: Adobe Illustrator 22.0.0, SVG Export Plug-In . SVG Version: 6.00 Build 0)  -->
<svg version="1.1" id="Calque_1" xmlns="http://www.w3.org/2000/svg" xmlns:xlink="http://www.w3.org/1999/xlink" x="0px" y="0px"
	 viewBox="0 0 841.9 595.3" style="enable-background:new 0 0 841.9 595.3;" xml:space="preserve">
<g>
	<path d="M72.5,285.5v-48c0-6,1.8-10.8,5.4-14.6c3.6-3.8,8.3-5.7,14.1-5.7c6.8,0,12.1,3.1,15.8,9.4c2.2-3.4,4.7-5.8,7.2-7.3
		c2.6-1.4,5.7-2.2,9.5-2.2c6,0,10.6,1.9,13.8,5.7c3.2,3.8,4.8,9.2,4.8,16.3v46.3h-19.8v-43.4c0-2.1-0.2-3.6-0.5-4.3
		c-0.3-0.7-1-1-2.1-1c-2,0-2.9,1.7-2.9,5v43.7H97.9v-43.4c0-2.1-0.2-3.5-0.5-4.2c-0.4-0.7-1.1-1.1-2.1-1.1c-2,0-2.9,1.8-2.9,5.3
		v43.4H72.5z"/>
	<path d="M180.7,267.3v18.9c-1.5,0.3-2.9,0.4-4.1,0.4c-7.3,0-13.4-2.4-18.3-7.2c-4.9-4.8-7.3-10.9-7.3-18.1c0-7.1,2.5-13.1,7.4-18
		c4.9-4.9,10.9-7.4,18-7.4c7.9,0,14.1,2.3,18.6,6.9c4.5,4.6,6.8,10.9,6.8,18.9v23.9h-18.3V263c0-2.6-0.6-4.6-1.9-6.2
		c-1.3-1.5-2.9-2.3-5.1-2.3c-1.9,0-3.6,0.7-5,2.1c-1.4,1.4-2.1,3.1-2.1,5c0,2,0.6,3.7,1.9,5c1.3,1.3,2.9,2,4.8,2
		C177.9,268.5,179.4,268.1,180.7,267.3z"/>
	<path d="M255.9,285.5h-18.3v-27.5c0-2.8-1.2-4.2-3.5-4.2c-2.3,0-3.4,1.4-3.4,4.2v27.5h-18.3v-27.1c0-6.3,2.1-11.7,6.3-16
		s9.3-6.5,15.4-6.5c7,0,12.5,2.5,16.7,7.6c3.3,3.9,4.9,9.4,4.9,16.5V285.5z"/>
	<path d="M289.6,235.8c6.9,0,12.8,2.5,17.7,7.4c4.9,5,7.4,10.9,7.4,17.8c0,7-2.5,13-7.5,18c-5,4.9-11,7.4-18.1,7.4
		c-7.1,0-13.1-2.5-18.1-7.4c-5-5-7.5-10.9-7.5-17.9c0-7.1,2.5-13.1,7.5-18C276.1,238.3,282.3,235.8,289.6,235.8z M289.1,253.9
		c-2,0-3.6,0.7-5,2.1s-2.1,3.1-2.1,5.2c0,2,0.7,3.7,2.1,5.2c1.4,1.4,3,2.1,5,2.1c2,0,3.6-0.7,5-2.1c1.4-1.4,2.1-3.2,2.1-5.2
		c0-2.1-0.7-3.8-2.1-5.2S291.1,253.9,289.1,253.9z"/>
	<path d="M365.8,285.5h-18.3v-27.5c0-2.8-1.2-4.2-3.5-4.2c-2.3,0-3.4,1.4-3.4,4.2v27.5h-18.3v-27.1c0-6.3,2.1-11.7,6.3-16
		s9.3-6.5,15.4-6.5c7,0,12.5,2.5,16.7,7.6c3.3,3.9,4.9,9.4,4.9,16.5V285.5z"/>
	<path d="M447.8,218.9l-20.7,47.5h20.5v19.1h-50.3l20.6-47.5h-21.8v-19.1H447.8z"/>
	<path d="M480.2,267.3v18.9c-1.5,0.3-2.9,0.4-4.1,0.4c-7.3,0-13.4-2.4-18.3-7.2c-4.9-4.8-7.3-10.9-7.3-18.1c0-7.1,2.5-13.1,7.4-18
		c4.9-4.9,10.9-7.4,18-7.4c7.9,0,14.1,2.3,18.6,6.9c4.5,4.6,6.8,10.9,6.8,18.9v23.9H483V263c0-2.6-0.6-4.6-1.9-6.2
		c-1.3-1.5-2.9-2.3-5.1-2.3c-1.9,0-3.6,0.7-5,2.1c-1.4,1.4-2.1,3.1-2.1,5c0,2,0.6,3.7,1.9,5c1.3,1.3,2.9,2,4.8,2
		C477.3,268.5,478.8,268.1,480.2,267.3z"/>
	<path d="M538.6,236.4v19.5c-1.3-0.7-2.4-1.1-3.5-1.1c-3.3,0-5,2.5-5,7.6v23.1h-18.3v-26.6c0-7,1.9-12.6,5.8-16.8
		c3.8-4.2,9-6.3,15.4-6.3C534.5,235.8,536.4,236,538.6,236.4z"/>
	<path d="M560.3,218.9v18.7h8.2v19.3h-8.2c0,3.9,0.6,6.5,1.8,8s3.5,2.2,6.7,2.2v19.2c-0.9,0-1.6,0-2.1,0c-4.1,0-8-1-11.7-2.9
		c-3.7-1.9-6.6-4.5-8.8-7.8c-2.8-4.2-4.2-9.8-4.2-16.7v-40H560.3z"/>
	<path d="M604.5,267.3v18.9c-1.5,0.3-2.9,0.4-4.1,0.4c-7.3,0-13.4-2.4-18.3-7.2c-4.9-4.8-7.3-10.9-7.3-18.1c0-7.1,2.5-13.1,7.4-18
		c4.9-4.9,10.9-7.4,18-7.4c7.9,0,14.1,2.3,18.6,6.9c4.5,4.6,6.8,10.9,6.8,18.9v23.9h-18.3V263c0-2.6-0.6-4.6-1.9-6.2
		c-1.3-1.5-2.9-2.3-5.1-2.3c-1.9,0-3.6,0.7-5,2.1c-1.4,1.4-2.1,3.1-2.1,5c0,2,0.6,3.7,1.9,5c1.3,1.3,2.9,2,4.8,2
		C601.7,268.5,603.1,268.1,604.5,267.3z"/>
	<path d="M663,236.4v19.5c-1.3-0.7-2.4-1.1-3.5-1.1c-3.3,0-5,2.5-5,7.6v23.1h-18.3v-26.6c0-7,1.9-12.6,5.8-16.8
		c3.8-4.2,9-6.3,15.4-6.3C658.8,235.8,660.7,236,663,236.4z"/>
	<path d="M686.6,236.9v48.7h-18.3v-48.7H686.6z M677.5,215.1c2.5,0,4.6,0.9,6.4,2.6c1.8,1.7,2.7,3.8,2.7,6.2c0,2.5-0.9,4.6-2.6,6.2
		c-1.7,1.6-3.9,2.4-6.6,2.4c-2.7,0-4.9-0.8-6.6-2.4c-1.7-1.6-2.6-3.7-2.6-6.2c0-2.4,0.9-4.4,2.7-6.2
		C672.9,216,675,215.1,677.5,215.1z"/>
	<path d="M724.4,267.3v18.9c-1.5,0.3-2.9,0.4-4.1,0.4c-7.3,0-13.4-2.4-18.3-7.2c-4.9-4.8-7.3-10.9-7.3-18.1c0-7.1,2.5-13.1,7.4-18
		c4.9-4.9,10.9-7.4,18-7.4c7.9,0,14.1,2.3,18.6,6.9c4.5,4.6,6.8,10.9,6.8,18.9v23.9h-18.3V263c0-2.6-0.6-4.6-1.9-6.2
		c-1.3-1.5-2.9-2.3-5.1-2.3c-1.9,0-3.6,0.7-5,2.1c-1.4,1.4-2.1,3.1-2.1,5c0,2,0.6,3.7,1.9,5c1.3,1.3,2.9,2,4.8,2
		C721.5,268.5,723,268.1,724.4,267.3z"/>
	<path d="M799.5,285.5h-18.3v-27.5c0-2.8-1.2-4.2-3.5-4.2c-2.3,0-3.4,1.4-3.4,4.2v27.5h-18.3v-27.1c0-6.3,2.1-11.7,6.3-16
		s9.3-6.5,15.4-6.5c7,0,12.5,2.5,16.7,7.6c3.3,3.9,4.9,9.4,4.9,16.5V285.5z"/>
</g>
</svg>
